PathFileType	4	(X/Y/Z)	C:\Users\Basilio\Documents\Thesis Gigler\squatting_fais\c3dfiles\075\SLS_back_pre2\markers_experimental.trc
DataRate	CameraRate	NumFrames	NumMarkers	Units	OrigDataRate	OrigDataStartFrame	OrigNumFrames
200.000000	200.000000	4	61	mm	200.000000	996	1329
Frame#	Time	FHD			LBHD			C7			T10			CLAV			LSHO			LUUPA			LMUPA			LDUPA			LLEP			LMEP			LRAD			LUL			LRFIN			RSHO			RUPA1			RMUPA			RDUPA			RLEP			RMEP			RRAD			RUL			RUFIN			LASI			RASI			USACR			LSACR			RSACR			LTHI1			LTHI2			LTHI3			LTHI4			LLFC			LMFC			LTIB1			LTIB2			LTIB3			LTIB4			LLMAL			LMMAL			LHEE			LMT1			LMT2			LMT5			RTHI			RTHI2			RTHI3			RTHI4			RLFC			RMFC			RTIB1			RTIB2			RTIB3			RTIB4			RLMAL			RMMAL			RHEE			RMT1			RMT2			RMT5			RBHD			
		X1	Y1	Z1	X2	Y2	Z2	X3	Y3	Z3	X4	Y4	Z4	X5	Y5	Z5	X6	Y6	Z6	X7	Y7	Z7	X8	Y8	Z8	X9	Y9	Z9	X10	Y10	Z10	X11	Y11	Z11	X12	Y12	Z12	X13	Y13	Z13	X14	Y14	Z14	X15	Y15	Z15	X16	Y16	Z16	X17	Y17	Z17	X18	Y18	Z18	X19	Y19	Z19	X20	Y20	Z20	X21	Y21	Z21	X22	Y22	Z22	X23	Y23	Z23	X24	Y24	Z24	X25	Y25	Z25	X26	Y26	Z26	X27	Y27	Z27	X28	Y28	Z28	X29	Y29	Z29	X30	Y30	Z30	X31	Y31	Z31	X32	Y32	Z32	X33	Y33	Z33	X34	Y34	Z34	X35	Y35	Z35	X36	Y36	Z36	X37	Y37	Z37	X38	Y38	Z38	X39	Y39	Z39	X40	Y40	Z40	X41	Y41	Z41	X42	Y42	Z42	X43	Y43	Z43	X44	Y44	Z44	X45	Y45	Z45	X46	Y46	Z46	X47	Y47	Z47	X48	Y48	Z48	X49	Y49	Z49	X50	Y50	Z50	X51	Y51	Z51	X52	Y52	Z52	X53	Y53	Z53	X54	Y54	Z54	X55	Y55	Z55	X56	Y56	Z56	X57	Y57	Z57	X58	Y58	Z58	X59	Y59	Z59	X60	Y60	Z60	X61	Y61	Z61	

997	4.98	-274.6231384277344	1741.603759765625	-741.3222045898439	-407.8685913085939	1611.002075195313	-810.0885009765627	-433.7913513183595	1497.856323242188	-754.0157470703126	-455.631805419922	1177.47509765625	-767.1254882812501	-289.7795715332032	1441.788940429688	-755.2388305664064	-326.9462585449219	1492.422119140625	-889.9199829101565	-194.5857696533204	1392.190063476563	-1010.815368652344	-157.595458984375	1410.506713867188	-981.971130371094	-125.4512481689453	1376.109130859375	-1020.545471191406	-41.51712799072266	1354.912231445313	-1014.4501953125	-65.57860565185548	1282.132080078125	-964.9358520507815	84.44164276123048	1392.49560546875	-796.4360961914065	139.9004516601563	1404.51220703125	-842.6628417968752	127.4885940551758	1437.8603515625	-737.8610839843751	-329.7943420410157	1465.125	-610.7066040039064	-217.4973144531251	1349.699462890625	-482.6629028320314	-175.8106842041016	1368.063842773438	-501.4316406250001	-153.3397216796875	1327.164916992188	-461.7942504882814	-82.83043670654298	1309.794921875	-454.4938049316407	-77.65841674804689	1239.260986328125	-497.9497070312501	72.94319915771486	1400.689331054688	-661.1965942382814	115.3780136108399	1387.28173828125	-599.6061401367189	139.352279663086	1451.555053710938	-693.4994506835939	-308.9349365234376	1020.167114257813	-917.6174926757815	-298.0642089843751	991.567810058594	-666.6818237304689	-457.9630126953126	1077.082641601563	-779.8157958984377	-467.9190063476564	1049.289916992188	-810.733825683594	-463.3808593750001	1043.561279296875	-753.4600830078126	-277.1824340820313	823.350769042969	-1029.483520507813	-211.3813781738282	772.5622558593752	-1043.82861328125	-174.6035766601563	790.7136230468752	-1016.409240722656	-210.3651885986329	712.2974853515626	-1053.839965820313	-185.0428771972657	620.1569824218751	-1056.20263671875	-149.5194396972657	582.8208618164064	-932.0446777343752	-205.7916564941407	491.9827575683595	-1026.32763671875	-281.7928771972657	508.4735717773439	-1065.215698242188	-256.1044311523438	475.5461425781251	-1050.68603515625	-311.8302001953126	421.768035888672	-1017.6669921875	-470.0732727050782	380.0855407714844	-1020.227844238281	-426.8956604003907	367.6020812988282	-942.7808837890627	-522.6439208984376	401.7261962890626	-968.127868652344	-405.1470336914064	227.2066497802735	-954.8395996093752	-409.9291381835939	222.6993255615235	-1003.66015625	-460.7734680175782	237.7128295898438	-1044.048706054688	-367.5179748535157	786.5742797851565	-619.0811157226564	-327.7733764648438	734.4078979492189	-625.3039550781251	-296.6090698242188	741.7000732421876	-635.2775878906251	-354.0733337402344	654.2669067382814	-642.5794677734376	-365.8306884765626	504.3055725097657	-686.8332519531251	-324.7377929687501	507.7559509277345	-809.7409667968752	-309.1993103027344	364.9389648437501	-760.1477050781251	-360.9906921386719	282.0650939941407	-711.6360473632814	-323.2984008789063	280.7304077148438	-741.4342041015626	-329.3748779296876	238.9093933105469	-781.5767822265627	-395.4746093750001	112.784912109375	-760.4846191406251	-367.4290466308594	146.5289001464844	-837.190612792969	-450.5446166992189	99.16098785400393	-820.3338623046877	-246.465560913086	60.49268341064455	-833.184997558594	-247.0708160400391	55.31468582153322	-791.2417602539065	-284.5067749023438	32.10876464843751	-740.5625000000001	-371.5052185058594	1648.528686523438	-656.3335571289064	
998	4.985	-274.5888671875001	1741.556762695313	-741.5051269531251	-407.7733459472657	1610.913696289063	-810.3423461914065	-433.6645812988282	1497.769653320313	-754.0914916992189	-455.2127990722657	1177.302978515625	-767.2117919921876	-290.0337219238282	1441.758178710938	-755.7549438476564	-327.0092163085938	1491.8271484375	-890.6270751953127	-194.8229522705079	1389.204711914063	-1011.771057128906	-158.99658203125	1407.550415039063	-983.3840942382815	-127.0161972045899	1372.711059570313	-1021.85546875	-43.22716903686524	1350.498168945313	-1015.823913574219	-68.17218017578126	1277.901489257813	-966.0854492187502	81.27599334716798	1387.715698242188	-796.832214355469	137.1526641845703	1399.29443359375	-842.8850708007815	124.6542434692383	1432.844970703125	-738.2703857421876	-329.4898681640626	1464.84423828125	-610.6182861328126	-218.6048736572266	1347.090698242188	-482.1561584472657	-176.5843200683594	1364.7822265625	-500.8734741210939	-154.8455047607422	1323.534790039063	-461.3162536621095	-84.54367828369142	1305.113891601563	-453.7074584960939	-80.21382904052736	1234.703125	-497.7250366210939	70.32706451416017	1395.751953125	-661.3593139648439	113.0841751098633	1381.931640625	-599.9453735351564	136.871337890625	1446.387573242188	-693.8030395507814	-308.6136779785157	1019.969665527344	-917.8106689453127	-297.3471374511719	991.5476684570315	-666.8276977539064	-457.4754638671876	1076.980712890625	-779.7657470703127	-467.5110778808595	1049.06494140625	-810.6770629882815	-462.8716125488282	1043.417358398438	-753.3955078125001	-277.4962158203126	822.8829345703127	-1029.712890625	-212.0788879394532	772.121765136719	-1044.502685546875	-174.9309387207032	790.1021728515627	-1016.846923828125	-210.630844116211	711.5930175781251	-1054.012939453125	-185.3939208984375	619.1784057617189	-1056.378173828125	-149.5194702148438	582.2059936523439	-932.4539184570315	-205.087142944336	490.9789123535157	-1026.162353515625	-281.7641296386719	507.1671447753907	-1065.421997070313	-255.8046569824219	474.5195312500001	-1051.067626953125	-311.3532714843751	420.2693786621095	-1017.937255859375	-469.1779174804689	377.4445495605469	-1020.383666992188	-425.9869079589845	365.2292480468751	-943.0240478515627	-521.6237182617189	398.6178588867189	-968.2072753906252	-403.2739257812501	224.8705291748047	-955.0225830078127	-407.900604248047	220.337875366211	-1004.006103515625	-458.8740844726564	235.2630157470704	-1044.626831054688	-366.7995300292969	786.5476074218752	-619.0520629882814	-327.2053833007813	734.2676391601564	-625.2947387695314	-296.0153198242188	741.5494995117189	-635.3273925781251	-353.4425659179688	654.3125610351564	-642.6143798828126	-365.3762207031251	504.2241210937501	-686.8112792968751	-324.4060974121094	507.7554626464845	-809.8071899414065	-308.9595336914063	364.9082031250001	-760.1628417968751	-360.7180786132813	281.9990539550782	-711.6588745117189	-323.0901794433594	280.7032775878907	-741.4163208007814	-329.2724304199219	238.8907928466797	-781.6082763671877	-395.4800109863282	112.8120803833008	-760.4613037109376	-367.4554748535157	146.558090209961	-837.2385864257815	-450.4636840820314	99.164421081543	-820.3084106445315	-246.4358367919922	60.50646972656251	-833.2127075195315	-246.6755065917969	55.16162490844728	-791.2087402343752	-284.5275573730469	32.12047958374024	-740.5445556640626	-371.4026794433594	1648.41552734375	-656.6314697265626	
999	4.99	-274.5981445312501	1741.5146484375	-741.7424926757814	-407.6679687500001	1610.7666015625	-810.5911254882815	-433.421356201172	1497.68212890625	-754.2904052734376	-454.9095153808595	1177.178344726563	-767.2937622070314	-289.1632080078126	1441.556518554688	-755.6577148437501	-326.9210205078126	1491.195922851563	-891.2086181640627	-197.3912200927735	1386.694091796875	-1012.8408203125	-160.1328735351563	1404.535766601563	-984.5172119140627	-129.1282196044922	1369.099853515625	-1022.941772460938	-45.24824523925782	1346.086059570313	-1017.230346679688	-70.74868774414064	1273.340698242188	-966.8878173828127	78.24019622802736	1382.780639648438	-797.4580688476565	134.5568389892578	1394.077026367188	-843.474548339844	121.9326858520508	1427.6884765625	-738.5852050781251	-329.0549621582032	1464.434692382813	-610.4763793945314	-219.8438415527344	1344.381225585938	-481.8404235839845	-177.2912139892578	1361.56591796875	-500.1565856933595	-156.548828125	1319.81201171875	-460.9059143066407	-86.3361053466797	1300.56201171875	-453.196014404297	-82.59006500244142	1230.264770507813	-497.495819091797	67.73123168945314	1391.018676757813	-661.7232666015626	110.6955642700196	1376.167724609375	-600.5164184570314	134.3811187744141	1441.130615234375	-694.0981445312501	-308.3264770507813	1019.860656738281	-917.916931152344	-296.6894226074219	991.5639648437502	-666.9812622070314	-457.0751037597657	1076.879150390625	-779.7460937500002	-467.1149902343751	1048.860473632813	-810.670104980469	-462.4212036132814	1043.317504882813	-753.4199218750001	-277.5839843750001	822.2871704101565	-1029.896728515625	-212.2697296142579	771.424255371094	-1044.8125	-175.0240936279297	789.342224121094	-1017.228515625	-212.0558471679688	710.9246826171876	-1054.378784179688	-186.0840148925782	618.4487915039064	-1056.7041015625	-149.5785827636719	581.6527099609376	-932.9401855468752	-204.7093200683594	489.8365478515626	-1026.672607421875	-281.6740722656251	505.6369934082032	-1065.873046875	-255.4329071044922	473.095184326172	-1051.359130859375	-310.6103210449219	418.5486450195314	-1018.301330566406	-468.0895080566407	374.6398315429688	-1020.58251953125	-424.7796936035157	362.7374267578126	-943.253356933594	-521.1367797851564	395.5323181152345	-968.4827270507815	-401.179168701172	222.6142578125001	-955.8103637695315	-405.7367553710939	218.2316894531251	-1004.556762695313	-456.8055419921876	232.5981597900391	-1044.960083007813	-366.1099243164063	786.5601196289065	-619.0325317382814	-326.5119934082032	734.2507934570314	-625.3638916015626	-295.3017272949219	741.5565795898439	-635.3304443359376	-352.7915649414063	654.3696289062501	-642.6375732421876	-364.8710937500001	504.1973266601564	-686.8265991210939	-323.8504028320313	507.7258605957032	-809.8071289062502	-308.7192077636719	364.7739562988282	-760.1946411132814	-360.4100646972657	281.9718627929688	-711.7092285156251	-322.9261474609376	280.5770568847657	-741.3660888671876	-329.0375366210938	238.7439422607422	-781.616149902344	-395.4275512695314	112.8087692260742	-760.5101318359376	-367.4093017578126	146.5552673339844	-837.179870605469	-450.4534606933595	99.15922546386722	-820.2875976562502	-246.2835845947266	60.31721878051759	-833.1376953125002	-246.8037567138672	55.18803787231447	-791.240173339844	-284.4844970703126	32.09503555297852	-740.6029663085939	-371.2398986816407	1648.242065429688	-656.8299560546876	
1000	4.995	-274.5939636230469	1741.436767578125	-741.9736328125001	-407.5820312500001	1610.605590820313	-810.7991943359377	-433.2633056640626	1497.56591796875	-754.3922119140626	-454.5563964843751	1177.10546875	-767.3428344726564	-289.4162597656251	1441.851318359375	-756.2109375000001	-326.7141723632813	1490.63916015625	-891.8748168945315	-198.1891326904297	1383.817138671875	-1013.590637207031	-161.2624053955078	1401.456420898438	-985.7757568359377	-130.923568725586	1365.315795898438	-1023.895446777344	-47.24705123901368	1341.616333007813	-1018.6650390625	-73.3527069091797	1269.165283203125	-968.0263671875002	75.43896484375001	1377.865478515625	-798.456481933594	131.9289245605469	1388.825561523438	-843.9511718750002	118.8382644653321	1422.679077148438	-739.0363769531251	-328.5764160156251	1464.101684570313	-610.2460937500001	-220.9313507080079	1341.598022460938	-481.5086059570314	-178.1052398681641	1358.328735351563	-499.4375915527345	-158.0884399414063	1316.058715820313	-460.4586486816407	-88.22859954833986	1295.8515625	-452.5194091796876	-85.49143981933595	1225.697265625	-497.3186340332032	65.6940383911133	1386.28076171875	-663.0234375000001	108.4106597900391	1370.627563476563	-600.9421386718751	132.0190582275391	1435.852416992188	-694.4155273437501	-308.0411071777344	1019.756042480469	-918.0756835937502	-295.9651489257813	991.6575317382815	-667.0988769531251	-456.668182373047	1076.752319335938	-779.710388183594	-466.7494506835939	1048.719604492188	-810.589294433594	-461.9856567382814	1043.227905273438	-753.3480224609376	-277.8857727050782	821.8204345703127	-1030.090454101563	-212.5846862792969	770.748962402344	-1045.178466796875	-175.2725677490235	788.6277465820315	-1017.728820800781	-211.6103668212891	710.2467651367189	-1054.528564453125	-186.7191467285157	617.7341308593751	-1056.929565429688	-149.6620178222657	581.1262817382814	-933.3535766601565	-204.4434356689454	488.9114685058595	-1026.89208984375	-281.6383361816407	504.0776672363282	-1066.00830078125	-255.2407531738282	471.6390075683595	-1051.634399414063	-309.4712219238282	416.7187500000001	-1018.351806640625	-467.1193847656251	371.8000488281251	-1020.818664550781	-423.4384765625001	359.9574584960938	-943.596130371094	-520.1673583984376	392.2368164062501	-968.679138183594	-398.8304443359376	219.9920654296876	-956.2827758789065	-403.502410888672	215.9788513183594	-1005.064086914063	-454.555389404297	229.8956451416016	-1045.55810546875	-365.5172119140626	786.5133056640627	-619.0931396484376	-325.6996154785157	734.2324218750001	-625.3239746093751	-294.6518249511719	741.5343017578126	-635.3871459960939	-352.1909484863282	654.3561401367189	-642.6328125000001	-364.3820190429688	504.2076416015626	-686.7809448242189	-323.5857543945313	507.6572875976564	-809.8499755859377	-308.5242614746094	364.7453918457032	-760.2387084960939	-360.2057800292969	281.8810729980469	-711.7414550781251	-322.2832641601563	280.1935729980469	-741.4598999023439	-328.9740905761719	238.7085266113282	-781.6555786132815	-395.4093322753907	112.807373046875	-760.4726562500001	-367.4527282714844	146.4605407714844	-837.0938720703127	-450.4650878906251	99.14653778076175	-820.3011474609377	-246.2777099609376	60.35339736938478	-833.1455078125002	-246.8228454589844	55.19857025146486	-791.2340087890627	-284.4467773437501	32.15551376342774	-740.5686645507814	-371.2143249511719	1648.132446289063	-656.8394775390626	
